<svg width="39" height="73" viewBox="0 0 39 73" fill="none" xmlns="http://www.w3.org/2000/svg">
<g filter="url(#filter0_f)">
<ellipse cx="19.916" cy="65.9355" rx="12.9161" ry="2.93547" fill="#E49B9B" fill-opacity="0.48"/>
</g>
<path d="M14.481 21.1444V10.8143C14.481 6.5279 14.6457 2.40251 18.7744 1.2503V1.2503C23.616 -0.100891 26.9251 7.01024 26.9251 12.0369V21.1444" stroke="black" stroke-width="1.5" stroke-linecap="round"/>
<path d="M37.975 49.0532L36.8395 16.6751C36.8018 15.6003 35.3263 15.3344 34.9158 16.3285L34.0916 18.3245C34.038 18.4545 34.0123 18.5942 34.0163 18.7348L34.926 50.5802C34.9533 51.5371 36.18 51.9124 36.738 51.1347L37.7881 49.6712C37.9171 49.4915 37.9828 49.2742 37.975 49.0532Z" fill="#EE8585" stroke="black" stroke-width="1.5"/>
<path d="M35.3116 14.1016H7.3457C7.1229 14.1016 6.90648 14.176 6.73078 14.313L1.42147 18.453C1.36595 18.4963 1.3335 18.5628 1.3335 18.6332C1.3335 18.7594 1.43578 18.8616 1.56195 18.8616H33.1849C33.495 18.8616 33.7877 18.7177 33.977 18.472L36.1037 15.7119C36.6103 15.0544 36.1416 14.1016 35.3116 14.1016Z" fill="#B74A4A"/>
<path d="M36.1037 15.7119L35.5096 15.2542V15.2542L36.1037 15.7119ZM33.977 18.472L34.5711 18.9298V18.9298L33.977 18.472ZM1.42147 18.453L0.960277 17.8616L0.960276 17.8616L1.42147 18.453ZM6.73078 14.313L6.26959 13.7215L6.26959 13.7215L6.73078 14.313ZM7.3457 14.8516H35.3116V13.3516H7.3457V14.8516ZM35.5096 15.2542L33.3829 18.0142L34.5711 18.9298L36.6978 16.1697L35.5096 15.2542ZM33.1849 18.1116H1.56195V19.6116H33.1849V18.1116ZM1.88266 19.0445L7.19197 14.9044L6.26959 13.7215L0.960277 17.8616L1.88266 19.0445ZM2.0835 18.6332C2.0835 18.7939 2.0094 18.9456 1.88266 19.0445L0.960276 17.8616C0.722508 18.047 0.583496 18.3317 0.583496 18.6332H2.0835ZM33.3829 18.0142C33.3356 18.0756 33.2624 18.1116 33.1849 18.1116V19.6116C33.7277 19.6116 34.2398 19.3597 34.5711 18.9298L33.3829 18.0142ZM35.3116 14.8516C35.5191 14.8516 35.6363 15.0898 35.5096 15.2542L36.6978 16.1697C37.5844 15.0191 36.7642 13.3516 35.3116 13.3516V14.8516ZM7.3457 13.3516C6.9558 13.3516 6.57707 13.4818 6.26959 13.7215L7.19197 14.9044C7.2359 14.8702 7.29 14.8516 7.3457 14.8516V13.3516ZM1.56195 18.1116C1.84999 18.1116 2.0835 18.3451 2.0835 18.6332H0.583496C0.583496 19.1736 1.02157 19.6116 1.56195 19.6116V18.1116Z" fill="black"/>
<path d="M33.0332 18.1814H2.32377C1.77528 18.1814 1.32915 18.6232 1.32382 19.1717L1.00961 51.5318C1.00429 52.0802 1.44164 52.5306 1.98996 52.5413L34.6072 53.1809C35.1861 53.1923 35.6536 52.7112 35.6257 52.1329L34.0321 19.1332C34.0063 18.6002 33.5668 18.1814 33.0332 18.1814Z" fill="#EE8585" stroke="black" stroke-width="1.5"/>
<path d="M11.7158 23.4686V13.1385C11.7158 8.85212 11.8806 4.72673 16.0092 3.57452V3.57452C20.8508 2.22333 24.16 9.33445 24.16 14.3611V23.4686" stroke="black" stroke-width="1.5" stroke-linecap="round"/>
<defs>
<filter id="filter0_f" x="3" y="59" width="33.8321" height="13.8709" filterUnits="userSpaceOnUse" color-interpolation-filters="sRGB">
<feFlood flood-opacity="0" result="BackgroundImageFix"/>
<feBlend mode="normal" in="SourceGraphic" in2="BackgroundImageFix" result="shape"/>
<feGaussianBlur stdDeviation="2" result="effect1_foregroundBlur"/>
</filter>
</defs>
</svg>
