<svg width="39" height="54" viewBox="0 0 39 54" fill="none" xmlns="http://www.w3.org/2000/svg">
<path d="M14.4805 21.1444V10.8143C14.4805 6.5279 14.6452 2.40251 18.7739 1.2503V1.2503C23.6155 -0.100891 26.9247 7.01024 26.9247 12.0369V21.1444" stroke="black" stroke-width="1.5" stroke-linecap="round"/>
<path d="M37.9746 49.0532L36.839 16.6751C36.8014 15.6003 35.3258 15.3344 34.9154 16.3285L34.0911 18.3245C34.0375 18.4545 34.0118 18.5942 34.0159 18.7348L34.9255 50.5802C34.9528 51.5371 36.1795 51.9124 36.7375 51.1347L37.7876 49.6712C37.9166 49.4915 37.9823 49.2742 37.9746 49.0532Z" fill="#EE8585" stroke="black" stroke-width="1.5"/>
<path d="M35.3121 14.1016H7.34619C7.12339 14.1016 6.90697 14.176 6.73127 14.313L1.42196 18.453C1.36644 18.4963 1.33398 18.5628 1.33398 18.6332C1.33398 18.7594 1.43627 18.8616 1.56244 18.8616H33.1853C33.4955 18.8616 33.7881 18.7177 33.9775 18.472L36.1042 15.7119C36.6108 15.0544 36.1421 14.1016 35.3121 14.1016Z" fill="#B74A4A"/>
<path d="M36.1042 15.7119L35.5101 15.2542V15.2542L36.1042 15.7119ZM33.9775 18.472L34.5716 18.9298V18.9298L33.9775 18.472ZM1.42196 18.453L0.960766 17.8616L0.960764 17.8616L1.42196 18.453ZM6.73127 14.313L6.27008 13.7215L6.27008 13.7215L6.73127 14.313ZM7.34619 14.8516H35.3121V13.3516H7.34619V14.8516ZM35.5101 15.2542L33.3834 18.0142L34.5716 18.9298L36.6983 16.1697L35.5101 15.2542ZM33.1853 18.1116H1.56244V19.6116H33.1853V18.1116ZM1.88315 19.0445L7.19246 14.9044L6.27008 13.7215L0.960766 17.8616L1.88315 19.0445ZM2.08398 18.6332C2.08398 18.7939 2.00989 18.9456 1.88315 19.0445L0.960764 17.8616C0.722996 18.047 0.583984 18.3317 0.583984 18.6332H2.08398ZM33.3834 18.0142C33.336 18.0756 33.2629 18.1116 33.1853 18.1116V19.6116C33.7282 19.6116 34.2402 19.3597 34.5716 18.9298L33.3834 18.0142ZM35.3121 14.8516C35.5196 14.8516 35.6368 15.0898 35.5101 15.2542L36.6983 16.1697C37.5849 15.0191 36.7647 13.3516 35.3121 13.3516V14.8516ZM7.34619 13.3516C6.95629 13.3516 6.57755 13.4818 6.27008 13.7215L7.19246 14.9044C7.23639 14.8702 7.29049 14.8516 7.34619 14.8516V13.3516ZM1.56244 18.1116C1.85047 18.1116 2.08398 18.3451 2.08398 18.6332H0.583984C0.583984 19.1736 1.02206 19.6116 1.56244 19.6116V18.1116Z" fill="black"/>
<path d="M33.0332 18.1814H2.32377C1.77528 18.1814 1.32915 18.6232 1.32382 19.1717L1.00961 51.5318C1.00429 52.0802 1.44164 52.5306 1.98996 52.5413L34.6072 53.1809C35.1861 53.1923 35.6536 52.7112 35.6257 52.1329L34.0321 19.1332C34.0063 18.6002 33.5668 18.1814 33.0332 18.1814Z" fill="#EE8585" stroke="black" stroke-width="1.5"/>
<path d="M11.7158 23.4686V13.1385C11.7158 8.85212 11.8806 4.72673 16.0092 3.57452V3.57452C20.8508 2.22333 24.16 9.33445 24.16 14.3611V23.4686" stroke="black" stroke-width="1.5" stroke-linecap="round"/>
</svg>
