<svg width="243" height="75" viewBox="0 0 243 75" fill="none" xmlns="http://www.w3.org/2000/svg">
<path d="M36.5555 71.2C32.0221 71.2 27.7555 70.5333 23.7555 69.2C19.7555 67.8 16.2555 65.7333 13.2555 63C10.3221 60.2 7.9888 56.7333 6.25547 52.6C4.5888 48.4 3.75547 43.5333 3.75547 38C3.75547 32.5333 4.62214 27.7 6.35547 23.5C8.0888 19.2333 10.4221 15.6667 13.3555 12.8C16.3555 9.86666 19.8221 7.63333 23.7555 6.09999C27.6888 4.56666 31.8221 3.79999 36.1555 3.79999C40.9555 3.79999 45.0888 4.66666 48.5555 6.4C52.0888 8.06667 55.0221 10.0667 57.3555 12.4L48.3555 23.4C46.7555 22 45.0555 20.8667 43.2555 20C41.5221 19.0667 39.3555 18.6 36.7555 18.6C34.5555 18.6 32.5221 19.0333 30.6555 19.9C28.7888 20.7667 27.1555 22 25.7555 23.6C24.3555 25.2 23.2555 27.1667 22.4555 29.5C21.7221 31.8333 21.3555 34.4667 21.3555 37.4C21.3555 43.5333 22.7221 48.2333 25.4555 51.5C28.1888 54.7667 32.4888 56.4 38.3555 56.4C39.2888 56.4 40.1888 56.3 41.0555 56.1C41.9888 55.9 42.7555 55.6 43.3555 55.2V46.2H33.7555V32.2H58.5555V63.2C56.2221 65.4 53.1221 67.3 49.2555 68.9C45.3888 70.4333 41.1555 71.2 36.5555 71.2ZM70.2039 70V5H94.8039C98.2706 5 101.571 5.33333 104.704 6C107.904 6.66666 110.671 7.8 113.004 9.4C115.404 11 117.304 13.1667 118.704 15.9C120.104 18.5667 120.804 21.9333 120.804 26C120.804 30.6667 119.837 34.5333 117.904 37.6C116.037 40.6667 113.504 43.0667 110.304 44.8L124.404 70H105.204L94.0039 48.2H87.4039V70H70.2039ZM87.4039 34.6H93.6039C100.537 34.6 104.004 31.7333 104.004 26C104.004 23.2 103.104 21.2667 101.304 20.2C99.5706 19.1333 97.0039 18.6 93.6039 18.6H87.4039V34.6ZM148.016 38.4L146.916 42.9H158.916L157.816 38.4C157.016 35.2667 156.216 31.8667 155.416 28.2C154.616 24.5333 153.816 21.0667 153.016 17.8H152.616C151.882 21.1333 151.116 24.6333 150.316 28.3C149.582 31.9 148.816 35.2667 148.016 38.4ZM123.016 70L142.816 5H163.616L183.416 70H165.216L162.016 56.2H143.816L140.616 70H123.016ZM188.614 70V5H212.014C215.414 5 218.614 5.26666 221.614 5.8C224.614 6.26666 227.214 7.1 229.414 8.3C231.614 9.5 233.347 11.1667 234.614 13.3C235.947 15.3667 236.614 18 236.614 21.2C236.614 22.6 236.414 24.0333 236.014 25.5C235.614 26.9 235.047 28.2667 234.314 29.6C233.647 30.8667 232.814 32 231.814 33C230.814 34 229.681 34.7333 228.414 35.2V35.6C231.547 36.5333 234.181 38.2333 236.314 40.7C238.514 43.1 239.614 46.4667 239.614 50.8C239.614 54.1333 238.914 57.0333 237.514 59.5C236.181 61.9 234.347 63.9 232.014 65.5C229.747 67.0333 227.047 68.1667 223.914 68.9C220.781 69.6333 217.481 70 214.014 70H188.614ZM205.814 30.4H211.614C214.414 30.4 216.481 29.8 217.814 28.6C219.147 27.4 219.814 25.8 219.814 23.8C219.814 21.8 219.147 20.3667 217.814 19.5C216.481 18.6333 214.414 18.2 211.614 18.2H205.814V30.4ZM205.814 56.8H212.814C219.481 56.8 222.814 54.4 222.814 49.6C222.814 47.2 221.981 45.5 220.314 44.5C218.714 43.5 216.214 43 212.814 43H205.814V56.8Z" fill="#FFD028"/>
<path d="M23.7555 69.2L22.7644 72.0316L22.7855 72.039L22.8068 72.046L23.7555 69.2ZM13.2555 63L11.184 65.1701L11.2092 65.1941L11.235 65.2176L13.2555 63ZM6.25547 52.6L3.467 53.7065L3.47768 53.7335L3.48889 53.7602L6.25547 52.6ZM6.35547 23.5L9.12859 24.6445L9.13175 24.6368L9.13487 24.6291L6.35547 23.5ZM13.3555 12.8L15.4523 14.9456L15.4528 14.945L13.3555 12.8ZM23.7555 6.09999L24.8451 8.89512L24.8451 8.89512L23.7555 6.09999ZM48.5555 6.4L47.2138 9.08328L47.2445 9.09864L47.2756 9.11329L48.5555 6.4ZM57.3555 12.4L59.6773 14.2997L61.3966 12.1984L59.4768 10.2787L57.3555 12.4ZM48.3555 23.4L46.38 25.6577L48.7137 27.6997L50.6773 25.2997L48.3555 23.4ZM43.2555 20L41.8332 22.6414L41.8929 22.6736L41.954 22.703L43.2555 20ZM30.6555 19.9L29.3921 17.179L29.3921 17.179L30.6555 19.9ZM25.7555 23.6L23.4977 21.6245L23.4977 21.6245L25.7555 23.6ZM22.4555 29.5L19.6176 28.527L19.6051 28.5636L19.5935 28.6005L22.4555 29.5ZM25.4555 51.5L23.1547 53.4252L23.1547 53.4252L25.4555 51.5ZM41.0555 56.1L40.4269 53.1666L40.4038 53.1715L40.3809 53.1768L41.0555 56.1ZM43.3555 55.2L45.0196 57.6962L46.3555 56.8056V55.2H43.3555ZM43.3555 46.2H46.3555V43.2H43.3555V46.2ZM33.7555 46.2H30.7555V49.2H33.7555V46.2ZM33.7555 32.2V29.2H30.7555V32.2H33.7555ZM58.5555 32.2H61.5555V29.2H58.5555V32.2ZM58.5555 63.2L60.6135 65.3828L61.5555 64.4946V63.2H58.5555ZM49.2555 68.9L50.3613 71.6887L50.382 71.6805L50.4025 71.6721L49.2555 68.9ZM36.5555 68.2C32.3203 68.2 28.3761 67.5779 24.7042 66.354L22.8068 72.046C27.1349 73.4887 31.7239 74.2 36.5555 74.2V68.2ZM24.7465 66.3684C21.1103 65.0957 17.9644 63.2319 15.2759 60.7824L11.235 65.2176C14.5465 68.2347 18.4006 70.5043 22.7644 72.0316L24.7465 66.3684ZM15.3269 60.8299C12.7224 58.3438 10.6126 55.2326 9.02205 51.4398L3.48889 53.7602C5.36504 58.2341 7.92186 62.0562 11.184 65.1701L15.3269 60.8299ZM9.04394 51.4935C7.54455 47.715 6.75547 43.237 6.75547 38H0.755469C0.755469 43.8297 1.63306 49.085 3.467 53.7065L9.04394 51.4935ZM6.75547 38C6.75547 32.848 7.57217 28.4158 9.12859 24.6445L3.58235 22.3555C1.6721 26.9842 0.755469 32.2186 0.755469 38H6.75547ZM9.13487 24.6291C10.732 20.6976 12.8481 17.4905 15.4523 14.9456L11.2587 10.6544C7.99612 13.8428 5.44556 17.769 3.57607 22.3709L9.13487 24.6291ZM15.4528 14.945C18.1623 12.2958 21.2856 10.2827 24.8451 8.89512L22.6658 3.30487C18.3587 4.98394 14.5487 7.43754 11.2581 10.655L15.4528 14.945ZM24.8451 8.89512C28.4219 7.50079 32.1849 6.79999 36.1555 6.79999V0.799994C31.4594 0.799994 26.9558 1.63253 22.6658 3.30487L24.8451 8.89512ZM36.1555 6.79999C40.5986 6.79999 44.2512 7.60197 47.2138 9.08328L49.8971 3.71672C45.9264 1.73135 41.3124 0.799994 36.1555 0.799994V6.79999ZM47.2756 9.11329C50.5525 10.659 53.1854 12.4726 55.2342 14.5213L59.4768 10.2787C56.8588 7.66073 53.6251 5.47432 49.8353 3.6867L47.2756 9.11329ZM55.0336 10.5003L46.0336 21.5003L50.6773 25.2997L59.6773 14.2997L55.0336 10.5003ZM50.331 21.1423C48.5404 19.5755 46.6158 18.2883 44.5569 17.297L41.954 22.703C43.4952 23.445 44.9705 24.4245 46.38 25.6577L50.331 21.1423ZM44.6778 17.3586C42.3896 16.1265 39.6984 15.6 36.7555 15.6V21.6C39.0126 21.6 40.6547 22.0068 41.8332 22.6414L44.6778 17.3586ZM36.7555 15.6C34.1497 15.6 31.6815 16.116 29.3921 17.179L31.9188 22.621C33.3628 21.9506 34.9612 21.6 36.7555 21.6V15.6ZM29.3921 17.179C27.1329 18.2279 25.1642 19.72 23.4977 21.6245L28.0132 25.5755C29.1467 24.28 30.4447 23.3054 31.9188 22.621L29.3921 17.179ZM23.4977 21.6245C21.8034 23.5609 20.524 25.8834 19.6176 28.527L25.2933 30.473C25.9869 28.45 26.9076 26.8391 28.0132 25.5755L23.4977 21.6245ZM19.5935 28.6005C18.7526 31.2762 18.3555 34.2204 18.3555 37.4H24.3555C24.3555 34.713 24.6917 32.3905 25.3175 30.3995L19.5935 28.6005ZM18.3555 37.4C18.3555 43.9341 19.8072 49.4246 23.1547 53.4252L27.7563 49.5748C25.637 47.0421 24.3555 43.1326 24.3555 37.4H18.3555ZM23.1547 53.4252C26.6509 57.6036 31.9529 59.4 38.3555 59.4V53.4C33.0247 53.4 29.7267 51.9297 27.7563 49.5748L23.1547 53.4252ZM38.3555 59.4C39.5047 59.4 40.6315 59.2767 41.7301 59.0232L40.3809 53.1768C39.7461 53.3233 39.0729 53.4 38.3555 53.4V59.4ZM41.6841 59.0334C42.8739 58.7784 44.0213 58.3617 45.0196 57.6962L41.6914 52.7038C41.4896 52.8383 41.1037 53.0216 40.4269 53.1666L41.6841 59.0334ZM46.3555 55.2V46.2H40.3555V55.2H46.3555ZM43.3555 43.2H33.7555V49.2H43.3555V43.2ZM36.7555 46.2V32.2H30.7555V46.2H36.7555ZM33.7555 35.2H58.5555V29.2H33.7555V35.2ZM55.5555 32.2V63.2H61.5555V32.2H55.5555ZM56.4974 61.0172C54.4966 62.9037 51.7355 64.6271 48.1084 66.1279L50.4025 71.6721C54.5087 69.9729 57.9477 67.8963 60.6135 65.3828L56.4974 61.0172ZM48.1496 66.1113C44.6704 67.491 40.8169 68.2 36.5555 68.2V74.2C41.494 74.2 46.1072 73.3757 50.3613 71.6887L48.1496 66.1113ZM70.2039 70H67.2039V73H70.2039V70ZM70.2039 5V2H67.2039V5H70.2039ZM104.704 6L104.08 8.93434L104.092 8.93694L104.704 6ZM113.004 9.4L111.307 11.8742L111.323 11.8853L111.34 11.8962L113.004 9.4ZM118.704 15.9L116.034 17.2676L116.041 17.2811L116.048 17.2945L118.704 15.9ZM117.904 37.6L115.366 36.0001L115.354 36.02L115.341 36.0402L117.904 37.6ZM110.304 44.8L108.875 42.1621L106.201 43.6107L107.686 46.2649L110.304 44.8ZM124.404 70V73H129.52L127.022 68.5351L124.404 70ZM105.204 70L102.535 71.3709L103.372 73H105.204V70ZM94.0039 48.2L96.6723 46.8291L95.8354 45.2H94.0039V48.2ZM87.4039 48.2V45.2H84.4039V48.2H87.4039ZM87.4039 70V73H90.4039V70H87.4039ZM87.4039 34.6H84.4039V37.6H87.4039V34.6ZM101.304 20.2L99.7316 22.755L99.753 22.7681L99.7745 22.7809L101.304 20.2ZM87.4039 18.6V15.6H84.4039V18.6H87.4039ZM73.2039 70V5H67.2039V70H73.2039ZM70.2039 8H94.8039V2H70.2039V8ZM94.8039 8C98.0778 8 101.167 8.31472 104.08 8.93431L105.328 3.06568C101.974 2.35194 98.4634 2 94.8039 2V8ZM104.092 8.93694C106.963 9.53509 109.348 10.5308 111.307 11.8742L114.7 6.92582C111.993 5.06918 108.845 3.79823 105.316 3.06305L104.092 8.93694ZM111.34 11.8962C113.286 13.1936 114.852 14.9597 116.034 17.2676L121.374 14.5324C119.756 11.3736 117.522 8.80638 114.668 6.90385L111.34 11.8962ZM116.048 17.2945C117.157 19.4071 117.804 22.2566 117.804 26H123.804C123.804 21.61 123.051 17.7263 121.36 14.5055L116.048 17.2945ZM117.804 26C117.804 30.2609 116.922 33.5321 115.366 36.0001L120.442 39.1999C122.752 35.5345 123.804 31.0724 123.804 26H117.804ZM115.341 36.0402C113.755 38.647 111.615 40.6779 108.875 42.1621L111.733 47.4379C115.393 45.4554 118.32 42.6863 120.467 39.1598L115.341 36.0402ZM107.686 46.2649L121.786 71.4649L127.022 68.5351L112.922 43.3351L107.686 46.2649ZM124.404 67H105.204V73H124.404V67ZM107.872 68.6291L96.6723 46.8291L91.3355 49.5709L102.535 71.3709L107.872 68.6291ZM94.0039 45.2H87.4039V51.2H94.0039V45.2ZM84.4039 48.2V70H90.4039V48.2H84.4039ZM87.4039 67H70.2039V73H87.4039V67ZM87.4039 37.6H93.6039V31.6H87.4039V37.6ZM93.6039 37.6C97.409 37.6 100.821 36.8251 103.316 34.7619C105.92 32.6085 107.004 29.4951 107.004 26H101.004C101.004 28.2382 100.355 29.4248 99.4921 30.1381C98.5204 30.9416 96.7322 31.6 93.6039 31.6V37.6ZM107.004 26C107.004 22.5458 105.847 19.4049 102.833 17.6191L99.7745 22.7809C100.361 23.1285 101.004 23.8541 101.004 26H107.004ZM102.876 17.645C100.451 16.1523 97.2274 15.6 93.6039 15.6V21.6C96.7804 21.6 98.6906 22.1144 99.7316 22.755L102.876 17.645ZM93.6039 15.6H87.4039V21.6H93.6039V15.6ZM84.4039 18.6V34.6H90.4039V18.6H84.4039ZM148.016 38.4L145.109 37.6578L145.105 37.6727L145.101 37.6876L148.016 38.4ZM146.916 42.9L144.001 42.1876L143.094 45.9H146.916V42.9ZM158.916 42.9V45.9H162.737L161.83 42.1876L158.916 42.9ZM157.816 38.4L160.73 37.6876L160.726 37.6727L160.722 37.6578L157.816 38.4ZM155.416 28.2L152.485 28.8395L155.416 28.2ZM153.016 17.8L155.93 17.0864L155.37 14.8H153.016V17.8ZM152.616 17.8V14.8H150.204L149.686 17.1554L152.616 17.8ZM150.316 28.3L147.385 27.6605L147.38 27.6808L147.376 27.7012L150.316 28.3ZM123.016 70L120.146 69.1258L118.966 73H123.016V70ZM142.816 5V2H140.593L139.946 4.12581L142.816 5ZM163.616 5L166.485 4.12581L165.838 2H163.616V5ZM183.416 70V73H187.466L186.285 69.1258L183.416 70ZM165.216 70L162.293 70.6777L162.832 73H165.216V70ZM162.016 56.2L164.938 55.5223L164.4 53.2H162.016V56.2ZM143.816 56.2V53.2H141.432L140.893 55.5223L143.816 56.2ZM140.616 70V73H143L143.538 70.6777L140.616 70ZM145.101 37.6876L144.001 42.1876L149.83 43.6124L150.93 39.1124L145.101 37.6876ZM146.916 45.9H158.916V39.9H146.916V45.9ZM161.83 42.1876L160.73 37.6876L154.901 39.1124L156.001 43.6124L161.83 42.1876ZM160.722 37.6578C159.932 34.5635 159.14 31.1981 158.347 27.5605L152.485 28.8395C153.291 32.5352 154.099 35.9699 154.909 39.1421L160.722 37.6578ZM158.347 27.5605C157.542 23.8718 156.736 20.3803 155.93 17.0864L150.102 18.5136C150.895 21.753 151.689 25.1948 152.485 28.8395L158.347 27.5605ZM153.016 14.8H152.616V20.8H153.016V14.8ZM149.686 17.1554C148.952 20.4906 148.185 23.9923 147.385 27.6605L153.247 28.9395C154.046 25.2744 154.813 21.7761 155.546 18.4446L149.686 17.1554ZM147.376 27.7012C146.651 31.2595 145.895 34.5779 145.109 37.6578L150.922 39.1421C151.736 35.9555 152.513 32.5405 153.255 28.8988L147.376 27.7012ZM125.885 70.8742L145.685 5.87418L139.946 4.12581L120.146 69.1258L125.885 70.8742ZM142.816 8H163.616V2H142.816V8ZM160.746 5.87418L180.546 70.8742L186.285 69.1258L166.485 4.12581L160.746 5.87418ZM183.416 67H165.216V73H183.416V67ZM168.138 69.3223L164.938 55.5223L159.093 56.8777L162.293 70.6777L168.138 69.3223ZM162.016 53.2H143.816V59.2H162.016V53.2ZM140.893 55.5223L137.693 69.3223L143.538 70.6777L146.738 56.8777L140.893 55.5223ZM140.616 67H123.016V73H140.616V67ZM188.614 70H185.614V73H188.614V70ZM188.614 5V2H185.614V5H188.614ZM221.614 5.8L221.089 8.75369L221.121 8.75936L221.153 8.76435L221.614 5.8ZM229.414 8.3L230.851 5.66631L229.414 8.3ZM234.614 13.3L232.034 14.8316L232.063 14.8795L232.093 14.9264L234.614 13.3ZM236.014 25.5L238.899 26.3242L238.904 26.3068L238.908 26.2894L236.014 25.5ZM234.314 29.6L231.685 28.1542L231.672 28.1784L231.659 28.2028L234.314 29.6ZM231.814 33L229.693 30.8787L229.693 30.8787L231.814 33ZM228.414 35.2L227.377 32.385L225.414 33.1081V35.2H228.414ZM228.414 35.6H225.414V37.8366L227.558 38.4752L228.414 35.6ZM236.314 40.7L234.045 42.6625L234.073 42.6952L234.103 42.7272L236.314 40.7ZM237.514 59.5L234.905 58.0192L234.898 58.0311L234.892 58.0431L237.514 59.5ZM232.014 65.5L233.695 67.9849L233.703 67.9795L233.711 67.9742L232.014 65.5ZM223.914 68.9L223.23 65.9789L223.23 65.9789L223.914 68.9ZM205.814 30.4H202.814V33.4H205.814V30.4ZM217.814 28.6L215.807 26.3701L215.807 26.3701L217.814 28.6ZM217.814 19.5L216.179 22.0153L216.179 22.0153L217.814 19.5ZM205.814 18.2V15.2H202.814V18.2H205.814ZM205.814 56.8H202.814V59.8H205.814V56.8ZM220.314 44.5L218.724 47.044L218.747 47.0584L218.771 47.0725L220.314 44.5ZM205.814 43V40H202.814V43H205.814ZM191.614 70V5H185.614V70H191.614ZM188.614 8H212.014V2H188.614V8ZM212.014 8C215.258 8 218.281 8.25447 221.089 8.75369L222.139 2.84631C218.947 2.27886 215.57 2 212.014 2V8ZM221.153 8.76435C223.881 9.18874 226.138 9.93016 227.978 10.9337L230.851 5.66631C228.29 4.26983 225.347 3.34458 222.075 2.83565L221.153 8.76435ZM227.978 10.9337C229.709 11.8784 231.046 13.1665 232.034 14.8316L237.194 11.7684C235.649 9.16682 233.519 7.12161 230.851 5.66631L227.978 10.9337ZM232.093 14.9264C233.032 16.3821 233.614 18.4058 233.614 21.2H239.614C239.614 17.5942 238.862 14.3512 237.135 11.6736L232.093 14.9264ZM233.614 21.2C233.614 22.3116 233.456 23.4793 233.12 24.7106L238.908 26.2894C239.373 24.5873 239.614 22.8884 239.614 21.2H233.614ZM233.129 24.6758C232.794 25.8502 232.315 27.009 231.685 28.1542L236.943 31.0458C237.779 29.5243 238.434 27.9498 238.899 26.3242L233.129 24.6758ZM231.659 28.2028C231.131 29.2059 230.477 30.0945 229.693 30.8787L233.935 35.1213C235.151 33.9055 236.163 32.5274 236.969 30.9972L231.659 28.2028ZM229.693 30.8787C228.985 31.5867 228.217 32.0755 227.377 32.385L229.451 38.015C231.145 37.3911 232.643 36.4133 233.935 35.1213L229.693 30.8787ZM225.414 35.2V35.6H231.414V35.2H225.414ZM227.558 38.4752C230.144 39.2456 232.287 40.6296 234.045 42.6625L238.583 38.7375C236.075 35.837 232.951 33.8211 229.27 32.7248L227.558 38.4752ZM234.103 42.7272C235.647 44.4118 236.614 46.9638 236.614 50.8H242.614C242.614 45.9696 241.381 41.7882 238.526 38.6728L234.103 42.7272ZM236.614 50.8C236.614 53.7057 236.007 56.0774 234.905 58.0192L240.123 60.9808C241.821 57.9893 242.614 54.5609 242.614 50.8H236.614ZM234.892 58.0431C233.791 60.0242 232.28 61.6803 230.317 63.0258L233.711 67.9742C236.415 66.1197 238.571 63.7758 240.137 60.9569L234.892 58.0431ZM230.333 63.0151C228.418 64.3109 226.069 65.3146 223.23 65.9789L224.598 71.8211C228.026 71.0187 231.077 69.7558 233.695 67.9849L230.333 63.0151ZM223.23 65.9789C220.338 66.656 217.268 67 214.014 67V73C217.693 73 221.224 72.6107 224.598 71.8211L223.23 65.9789ZM214.014 67H188.614V73H214.014V67ZM205.814 33.4H211.614V27.4H205.814V33.4ZM211.614 33.4C214.757 33.4 217.699 32.7395 219.821 30.8299L215.807 26.3701C215.262 26.8605 214.071 27.4 211.614 27.4V33.4ZM219.821 30.8299C221.863 28.992 222.814 26.5416 222.814 23.8H216.814C216.814 25.0584 216.432 25.808 215.807 26.3701L219.821 30.8299ZM222.814 23.8C222.814 21.0819 221.856 18.5493 219.449 16.9847L216.179 22.0153C216.439 22.184 216.814 22.518 216.814 23.8H222.814ZM219.449 16.9847C217.383 15.642 214.608 15.2 211.614 15.2V21.2C214.22 21.2 215.578 21.6246 216.179 22.0153L219.449 16.9847ZM211.614 15.2H205.814V21.2H211.614V15.2ZM202.814 18.2V30.4H208.814V18.2H202.814ZM205.814 59.8H212.814V53.8H205.814V59.8ZM212.814 59.8C216.417 59.8 219.66 59.1676 222.067 57.4346C224.656 55.5704 225.814 52.7791 225.814 49.6H219.814C219.814 51.2209 219.305 52.0296 218.561 52.5654C217.635 53.2324 215.877 53.8 212.814 53.8V59.8ZM225.814 49.6C225.814 46.4335 224.65 43.6027 221.858 41.9275L218.771 47.0725C219.312 47.3972 219.814 47.9665 219.814 49.6H225.814ZM221.904 41.956C219.58 40.5034 216.387 40 212.814 40V46C216.041 46 217.848 46.4966 218.724 47.044L221.904 41.956ZM212.814 40H205.814V46H212.814V40ZM202.814 43V56.8H208.814V43H202.814Z" fill="black"/>
</svg>
