<svg width="1356" height="118" viewBox="0 0 1356 118" fill="none" xmlns="http://www.w3.org/2000/svg">
<g filter="url(#filter0_d)">
<path d="M53.265 4.99999C62.965 4.99999 71.415 6.59999 78.615 9.79999C85.815 13 91.365 17.6 95.265 23.6C99.165 29.6 101.115 36.6 101.115 44.6C101.115 52.6 99.165 59.6 95.265 65.6C91.365 71.6 85.815 76.2 78.615 79.4C71.415 82.6 62.965 84.2 53.265 84.2H38.115V110H2.71504V4.99999H53.265ZM51.015 56.9C55.815 56.9 59.415 55.85 61.815 53.75C64.215 51.55 65.415 48.5 65.415 44.6C65.415 40.7 64.215 37.7 61.815 35.6C59.415 33.4 55.815 32.3 51.015 32.3H38.115V56.9H51.015ZM159.225 83.6H149.625V110H114.225V4.99999H164.775C174.475 4.99999 182.925 6.59999 190.125 9.79999C197.325 13 202.875 17.6 206.775 23.6C210.675 29.6 212.625 36.6 212.625 44.6C212.625 52.1 210.925 58.65 207.525 64.25C204.125 69.85 199.225 74.3 192.825 77.6L214.875 110H177.075L159.225 83.6ZM176.925 44.6C176.925 40.7 175.725 37.7 173.325 35.6C170.925 33.4 167.325 32.3 162.525 32.3H149.625V56.9H162.525C167.325 56.9 170.925 55.85 173.325 53.75C175.725 51.55 176.925 48.5 176.925 44.6ZM227.492 4.99999H262.892V110H227.492V4.99999ZM384.934 4.99999V110H355.834L315.934 62.3V110H281.434V4.99999H310.534L350.434 52.7V4.99999H384.934ZM426.29 32.45H395.54V4.99999H492.44V32.45H461.69V110H426.29V32.45ZM643.356 110L643.056 62.15L620.256 100.55H604.656L581.856 63.8V110H549.606V4.99999H578.706L612.906 60.95L646.206 4.99999H675.306L675.606 110H643.356ZM749.271 112.4C737.971 112.4 727.821 110.05 718.821 105.35C709.821 100.65 702.771 94.15 697.671 85.85C692.571 77.45 690.021 68 690.021 57.5C690.021 47 692.571 37.6 697.671 29.3C702.771 20.9 709.821 14.35 718.821 9.65C727.821 4.95 737.971 2.6 749.271 2.6C760.571 2.6 770.721 4.95 779.721 9.65C788.721 14.35 795.771 20.9 800.871 29.3C805.971 37.6 808.521 47 808.521 57.5C808.521 68 805.971 77.45 800.871 85.85C795.771 94.15 788.721 100.65 779.721 105.35C770.721 110.05 760.571 112.4 749.271 112.4ZM749.271 83.75C753.671 83.75 757.621 82.7 761.121 80.6C764.721 78.4 767.571 75.35 769.671 71.45C771.771 67.45 772.821 62.8 772.821 57.5C772.821 52.2 771.771 47.6 769.671 43.7C767.571 39.7 764.721 36.65 761.121 34.55C757.621 32.35 753.671 31.25 749.271 31.25C744.871 31.25 740.871 32.35 737.271 34.55C733.771 36.65 730.971 39.7 728.871 43.7C726.771 47.6 725.721 52.2 725.721 57.5C725.721 62.8 726.771 67.45 728.871 71.45C730.971 75.35 733.771 78.4 737.271 80.6C740.871 82.7 744.871 83.75 749.271 83.75ZM926.369 4.99999V110H897.269L857.369 62.3V110H822.869V4.99999H851.969L891.869 52.7V4.99999H926.369ZM984.076 112.4C975.376 112.4 966.876 111.45 958.576 109.55C950.376 107.55 943.626 104.9 938.326 101.6L949.726 75.8C954.726 78.7 960.326 81.05 966.526 82.85C972.726 84.55 978.676 85.4 984.376 85.4C989.276 85.4 992.776 84.95 994.876 84.05C996.976 83.05 998.026 81.6 998.026 79.7C998.026 77.5 996.626 75.85 993.826 74.75C991.126 73.65 986.626 72.45 980.326 71.15C972.226 69.45 965.476 67.65 960.076 65.75C954.676 63.75 949.976 60.55 945.976 56.15C941.976 51.65 939.976 45.6 939.976 38C939.976 31.4 941.826 25.4 945.526 20C949.226 14.6 954.726 10.35 962.026 7.24999C969.426 4.14999 978.376 2.6 988.876 2.6C996.076 2.6 1003.13 3.4 1010.03 4.99999C1017.03 6.49999 1023.18 8.74999 1028.48 11.75L1017.83 37.4C1007.53 32.2 997.776 29.6 988.576 29.6C979.476 29.6 974.926 31.8 974.926 36.2C974.926 38.3 976.276 39.9 978.976 41C981.676 42 986.126 43.1 992.326 44.3C1000.33 45.8 1007.08 47.55 1012.58 49.55C1018.08 51.45 1022.83 54.6 1026.83 59C1030.93 63.4 1032.98 69.4 1032.98 77C1032.98 83.6 1031.13 89.6 1027.43 95C1023.73 100.3 1018.18 104.55 1010.78 107.75C1003.48 110.85 994.576 112.4 984.076 112.4ZM1066.35 32.45H1035.6V4.99999H1132.5V32.45H1101.75V110H1066.35V32.45ZM1230.49 83.3V110H1143.19V4.99999H1228.54V31.7H1177.99V44H1222.39V69.5H1177.99V83.3H1230.49ZM1290.62 83.6H1281.02V110H1245.62V4.99999H1296.17C1305.87 4.99999 1314.32 6.59999 1321.52 9.79999C1328.72 13 1334.27 17.6 1338.17 23.6C1342.07 29.6 1344.02 36.6 1344.02 44.6C1344.02 52.1 1342.32 58.65 1338.92 64.25C1335.52 69.85 1330.62 74.3 1324.22 77.6L1346.27 110H1308.47L1290.62 83.6ZM1308.32 44.6C1308.32 40.7 1307.12 37.7 1304.72 35.6C1302.32 33.4 1298.72 32.3 1293.92 32.3H1281.02V56.9H1293.92C1298.72 56.9 1302.32 55.85 1304.72 53.75C1307.12 51.55 1308.32 48.5 1308.32 44.6Z" fill="#FF0000"/>
<path d="M78.615 9.8L77.8028 11.6276L78.615 9.8ZM95.265 23.6L93.5882 24.69L95.265 23.6ZM95.265 65.6L93.5882 64.51L95.265 65.6ZM78.615 79.4L77.8028 77.5724L78.615 79.4ZM38.115 84.2V82.2H36.115V84.2H38.115ZM38.115 110V112H40.115V110H38.115ZM2.71504 110H0.71504V112H2.71504V110ZM2.71504 4.99999V2.99999H0.71504V4.99999H2.71504ZM61.815 53.75L63.1321 55.2551L63.1495 55.2399L63.1665 55.2243L61.815 53.75ZM61.815 35.6L60.4636 37.0743L60.4806 37.0899L60.498 37.1051L61.815 35.6ZM38.115 32.3V30.3H36.115V32.3H38.115ZM38.115 56.9H36.115V58.9H38.115V56.9ZM53.265 6.99999C62.7482 6.99999 70.9104 8.56434 77.8028 11.6276L79.4273 7.97237C71.9197 4.63565 63.1819 2.99999 53.265 2.99999V6.99999ZM77.8028 11.6276C84.6864 14.687 89.92 19.0467 93.5882 24.69L96.9419 22.51C92.8101 16.1533 86.9437 11.313 79.4273 7.97237L77.8028 11.6276ZM93.5882 24.69C97.253 30.3281 99.1151 36.9398 99.1151 44.6H103.115C103.115 36.2602 101.077 28.8719 96.9419 22.51L93.5882 24.69ZM99.1151 44.6C99.1151 52.2602 97.253 58.8719 93.5882 64.51L96.9419 66.69C101.077 60.3281 103.115 52.9398 103.115 44.6H99.1151ZM93.5882 64.51C89.92 70.1533 84.6864 74.513 77.8028 77.5724L79.4273 81.2276C86.9437 77.887 92.8101 73.0467 96.9419 66.69L93.5882 64.51ZM77.8028 77.5724C70.9104 80.6357 62.7482 82.2 53.265 82.2V86.2C63.1819 86.2 71.9197 84.5643 79.4273 81.2276L77.8028 77.5724ZM53.265 82.2H38.115V86.2H53.265V82.2ZM36.115 84.2V110H40.115V84.2H36.115ZM38.115 108H2.71504V112H38.115V108ZM4.71504 110V4.99999H0.71504V110H4.71504ZM2.71504 6.99999H53.265V2.99999H2.71504V6.99999ZM51.015 58.9C56.0626 58.9 60.2218 57.8016 63.1321 55.2551L60.498 52.2448C58.6083 53.8984 55.5675 54.9 51.015 54.9V58.9ZM63.1665 55.2243C66.0609 52.5711 67.415 48.9401 67.415 44.6H63.415C63.415 48.0599 62.3692 50.5289 60.4636 52.2757L63.1665 55.2243ZM67.415 44.6C67.415 40.2631 66.0612 36.6579 63.1321 34.0948L60.498 37.1051C62.3688 38.7421 63.415 41.1369 63.415 44.6H67.415ZM63.1665 34.1257C60.2558 31.4576 56.0823 30.3 51.015 30.3V34.3C55.5478 34.3 58.5743 35.3424 60.4636 37.0743L63.1665 34.1257ZM51.015 30.3H38.115V34.3H51.015V30.3ZM36.115 32.3V56.9H40.115V32.3H36.115ZM38.115 58.9H51.015V54.9H38.115V58.9ZM159.225 83.6L160.882 82.4798L160.287 81.6H159.225V83.6ZM149.625 83.6V81.6H147.625V83.6H149.625ZM149.625 110V112H151.625V110H149.625ZM114.225 110H112.225V112H114.225V110ZM114.225 4.99999V2.99999H112.225V4.99999H114.225ZM190.125 9.8L189.313 11.6276L190.125 9.8ZM206.775 23.6L205.098 24.69L206.775 23.6ZM207.525 64.25L205.815 63.212L207.525 64.25ZM192.825 77.6L191.908 75.8224L189.9 76.8577L191.171 78.7253L192.825 77.6ZM214.875 110V112H218.655L216.528 108.875L214.875 110ZM177.075 110L175.418 111.12L176.013 112H177.075V110ZM173.325 35.6L171.973 37.0743L171.99 37.0899L172.008 37.1051L173.325 35.6ZM149.625 32.3V30.3H147.625V32.3H149.625ZM149.625 56.9H147.625V58.9H149.625V56.9ZM173.325 53.75L174.642 55.2551L174.659 55.2399L174.676 55.2243L173.325 53.75ZM159.225 81.6H149.625V85.6H159.225V81.6ZM147.625 83.6V110H151.625V83.6H147.625ZM149.625 108H114.225V112H149.625V108ZM116.225 110V4.99999H112.225V110H116.225ZM114.225 6.99999H164.775V2.99999H114.225V6.99999ZM164.775 6.99999C174.258 6.99999 182.42 8.56434 189.313 11.6276L190.937 7.97237C183.429 4.63565 174.692 2.99999 164.775 2.99999V6.99999ZM189.313 11.6276C196.196 14.687 201.43 19.0467 205.098 24.69L208.452 22.51C204.32 16.1533 198.453 11.313 190.937 7.97237L189.313 11.6276ZM205.098 24.69C208.763 30.3281 210.625 36.9398 210.625 44.6H214.625C214.625 36.2602 212.587 28.8719 208.452 22.51L205.098 24.69ZM210.625 44.6C210.625 51.788 208.999 57.9681 205.815 63.212L209.234 65.288C212.851 59.3319 214.625 52.412 214.625 44.6H210.625ZM205.815 63.212C202.625 68.4664 198.014 72.6739 191.908 75.8224L193.741 79.3776C200.435 75.9261 205.625 71.2336 209.234 65.288L205.815 63.212ZM191.171 78.7253L213.221 111.125L216.528 108.875L194.478 76.4748L191.171 78.7253ZM214.875 108H177.075V112H214.875V108ZM178.732 108.88L160.882 82.4798L157.568 84.7202L175.418 111.12L178.732 108.88ZM178.925 44.6C178.925 40.2631 177.571 36.6579 174.642 34.0948L172.008 37.1051C173.879 38.7421 174.925 41.1369 174.925 44.6H178.925ZM174.676 34.1257C171.766 31.4576 167.592 30.3 162.525 30.3V34.3C167.058 34.3 170.084 35.3424 171.973 37.0743L174.676 34.1257ZM162.525 30.3H149.625V34.3H162.525V30.3ZM147.625 32.3V56.9H151.625V32.3H147.625ZM149.625 58.9H162.525V54.9H149.625V58.9ZM162.525 58.9C167.572 58.9 171.732 57.8016 174.642 55.2551L172.008 52.2448C170.118 53.8984 167.077 54.9 162.525 54.9V58.9ZM174.676 55.2243C177.571 52.5711 178.925 48.9401 178.925 44.6H174.925C174.925 48.0599 173.879 50.5289 171.973 52.2757L174.676 55.2243ZM227.492 4.99999V2.99999H225.492V4.99999H227.492ZM262.892 4.99999H264.892V2.99999H262.892V4.99999ZM262.892 110V112H264.892V110H262.892ZM227.492 110H225.492V112H227.492V110ZM227.492 6.99999H262.892V2.99999H227.492V6.99999ZM260.892 4.99999V110H264.892V4.99999H260.892ZM262.892 108H227.492V112H262.892V108ZM229.492 110V4.99999H225.492V110H229.492ZM384.934 4.99999H386.934V2.99999H384.934V4.99999ZM384.934 110V112H386.934V110H384.934ZM355.834 110L354.3 111.283L354.899 112H355.834V110ZM315.934 62.3L317.468 61.0168L313.934 56.7918V62.3H315.934ZM315.934 110V112H317.934V110H315.934ZM281.434 110H279.434V112H281.434V110ZM281.434 4.99999V2.99999H279.434V4.99999H281.434ZM310.534 4.99999L312.068 3.71678L311.468 2.99999H310.534V4.99999ZM350.434 52.7L348.9 53.9832L352.434 58.2081V52.7H350.434ZM350.434 4.99999V2.99999H348.434V4.99999H350.434ZM382.934 4.99999V110H386.934V4.99999H382.934ZM384.934 108H355.834V112H384.934V108ZM357.368 108.717L317.468 61.0168L314.4 63.5832L354.3 111.283L357.368 108.717ZM313.934 62.3V110H317.934V62.3H313.934ZM315.934 108H281.434V112H315.934V108ZM283.434 110V4.99999H279.434V110H283.434ZM281.434 6.99999H310.534V2.99999H281.434V6.99999ZM309 6.28321L348.9 53.9832L351.968 51.4168L312.068 3.71678L309 6.28321ZM352.434 52.7V4.99999H348.434V52.7H352.434ZM350.434 6.99999H384.934V2.99999H350.434V6.99999ZM426.29 32.45H428.29V30.45H426.29V32.45ZM395.54 32.45H393.54V34.45H395.54V32.45ZM395.54 4.99999V2.99999H393.54V4.99999H395.54ZM492.44 4.99999H494.44V2.99999H492.44V4.99999ZM492.44 32.45V34.45H494.44V32.45H492.44ZM461.69 32.45V30.45H459.69V32.45H461.69ZM461.69 110V112H463.69V110H461.69ZM426.29 110H424.29V112H426.29V110ZM426.29 30.45H395.54V34.45H426.29V30.45ZM397.54 32.45V4.99999H393.54V32.45H397.54ZM395.54 6.99999H492.44V2.99999H395.54V6.99999ZM490.44 4.99999V32.45H494.44V4.99999H490.44ZM492.44 30.45H461.69V34.45H492.44V30.45ZM459.69 32.45V110H463.69V32.45H459.69ZM461.69 108H426.29V112H461.69V108ZM428.29 110V32.45H424.29V110H428.29ZM643.356 110L641.356 110.013L641.368 112H643.356V110ZM643.056 62.15L645.056 62.1375L645.01 54.9402L641.336 61.1289L643.056 62.15ZM620.256 100.55V102.55H621.394L621.975 101.571L620.256 100.55ZM604.656 100.55L602.956 101.604L603.543 102.55H604.656V100.55ZM581.856 63.8L583.555 62.7456L579.856 56.7826V63.8H581.856ZM581.856 110V112H583.856V110H581.856ZM549.606 110H547.606V112H549.606V110ZM549.606 4.99999V2.99999H547.606V4.99999H549.606ZM578.706 4.99999L580.412 3.95691L579.827 2.99999H578.706V4.99999ZM612.906 60.95L611.199 61.9931L612.929 64.8221L614.624 61.9729L612.906 60.95ZM646.206 4.99999V2.99999H645.069L644.487 3.97711L646.206 4.99999ZM675.306 4.99999L677.306 4.99428L677.3 2.99999H675.306V4.99999ZM675.606 110V112H677.611L677.606 109.994L675.606 110ZM645.356 109.987L645.056 62.1375L641.056 62.1625L641.356 110.013L645.356 109.987ZM641.336 61.1289L618.536 99.5289L621.975 101.571L644.775 63.1711L641.336 61.1289ZM620.256 98.55H604.656V102.55H620.256V98.55ZM606.355 99.4956L583.555 62.7456L580.156 64.8544L602.956 101.604L606.355 99.4956ZM579.856 63.8V110H583.856V63.8H579.856ZM581.856 108H549.606V112H581.856V108ZM551.606 110V4.99999H547.606V110H551.606ZM549.606 6.99999H578.706V2.99999H549.606V6.99999ZM576.999 6.04308L611.199 61.9931L614.612 59.9069L580.412 3.95691L576.999 6.04308ZM614.624 61.9729L647.924 6.02288L644.487 3.97711L611.187 59.9271L614.624 61.9729ZM646.206 6.99999H675.306V2.99999H646.206V6.99999ZM673.306 5.00571L673.606 110.006L677.606 109.994L677.306 4.99428L673.306 5.00571ZM675.606 108H643.356V112H675.606V108ZM718.821 105.35L719.747 103.577L718.821 105.35ZM697.671 85.85L695.961 86.888L695.967 86.897L697.671 85.85ZM697.671 29.3L699.375 30.3471L699.38 30.338L697.671 29.3ZM779.721 9.64999L780.647 7.87718L779.721 9.64999ZM800.871 29.3L799.161 30.338L799.167 30.347L800.871 29.3ZM800.871 85.85L802.575 86.8971L802.58 86.888L800.871 85.85ZM779.721 105.35L780.647 107.123L779.721 105.35ZM761.121 80.6L762.15 82.315L762.157 82.3108L762.164 82.3066L761.121 80.6ZM769.671 71.45L771.432 72.3982L771.437 72.389L771.442 72.3797L769.671 71.45ZM769.671 43.7L767.9 44.6297L767.905 44.639L767.91 44.6482L769.671 43.7ZM761.121 34.55L760.057 36.2433L760.085 36.2609L760.113 36.2776L761.121 34.55ZM737.271 34.55L738.3 36.265L738.307 36.2608L738.314 36.2566L737.271 34.55ZM728.871 43.7L730.632 44.6482L730.637 44.639L730.642 44.6297L728.871 43.7ZM728.871 71.45L727.1 72.3797L727.105 72.389L727.11 72.3982L728.871 71.45ZM737.271 80.6L736.207 82.2933L736.235 82.3109L736.263 82.3276L737.271 80.6ZM749.271 110.4C738.256 110.4 728.43 108.112 719.747 103.577L717.895 107.123C727.212 111.988 737.685 114.4 749.271 114.4V110.4ZM719.747 103.577C711.053 99.037 704.278 92.7819 699.375 84.8029L695.967 86.897C701.264 95.5181 708.589 102.263 717.895 107.123L719.747 103.577ZM699.38 84.812C694.484 76.7465 692.021 67.66 692.021 57.5H688.021C688.021 68.34 690.658 78.1535 695.961 86.888L699.38 84.812ZM692.021 57.5C692.021 47.3398 694.484 38.3076 699.375 30.347L695.967 28.2529C690.658 36.8924 688.021 46.6602 688.021 57.5H692.021ZM699.38 30.338C704.285 22.2605 711.059 15.9598 719.747 11.4228L717.895 7.87718C708.583 12.7402 701.257 19.5395 695.961 28.262L699.38 30.338ZM719.747 11.4228C728.43 6.88828 738.256 4.6 749.271 4.6V0.599998C737.685 0.599998 727.212 3.01171 717.895 7.87718L719.747 11.4228ZM749.271 4.6C760.285 4.6 770.112 6.88828 778.795 11.4228L780.647 7.87718C771.33 3.01171 760.856 0.599998 749.271 0.599998V4.6ZM778.795 11.4228C787.483 15.9598 794.257 22.2605 799.161 30.338L802.58 28.262C797.285 19.5395 789.959 12.7402 780.647 7.87718L778.795 11.4228ZM799.167 30.347C804.058 38.3076 806.521 47.3398 806.521 57.5H810.521C810.521 46.6602 807.884 36.8924 802.575 28.2529L799.167 30.347ZM806.521 57.5C806.521 67.66 804.058 76.7465 799.161 84.812L802.58 86.888C807.884 78.1535 810.521 68.34 810.521 57.5H806.521ZM799.167 84.8029C794.264 92.7819 787.489 99.037 778.795 103.577L780.647 107.123C789.953 102.263 797.278 95.5181 802.575 86.897L799.167 84.8029ZM778.795 103.577C770.112 108.112 760.285 110.4 749.271 110.4V114.4C760.856 114.4 771.33 111.988 780.647 107.123L778.795 103.577ZM749.271 85.75C754.004 85.75 758.315 84.616 762.15 82.315L760.092 78.885C756.927 80.784 753.338 81.75 749.271 81.75V85.75ZM762.164 82.3066C766.081 79.9125 769.173 76.5939 771.432 72.3982L767.91 70.5018C765.969 74.1061 763.36 76.8875 760.078 78.8934L762.164 82.3066ZM771.442 72.3797C773.716 68.0471 774.821 63.0678 774.821 57.5H770.821C770.821 62.5322 769.826 66.853 767.9 70.5203L771.442 72.3797ZM774.821 57.5C774.821 51.9338 773.717 46.9954 771.432 42.7518L767.91 44.6482C769.825 48.2046 770.821 52.4662 770.821 57.5H774.821ZM771.442 42.7703C769.182 38.467 766.08 35.1274 762.129 32.8224L760.113 36.2776C763.362 38.1726 765.959 40.933 767.9 44.6297L771.442 42.7703ZM762.185 32.8567C758.346 30.4433 754.022 29.25 749.271 29.25V33.25C753.32 33.25 756.896 34.2567 760.057 36.2433L762.185 32.8567ZM749.271 29.25C744.519 29.25 740.156 30.4431 736.228 32.8434L738.314 36.2566C741.586 34.2569 745.222 33.25 749.271 33.25V29.25ZM736.242 32.835C732.394 35.1435 729.352 38.4812 727.1 42.7703L730.642 44.6297C732.59 40.9188 735.147 38.1565 738.3 36.265L736.242 32.835ZM727.11 42.7518C724.825 46.9954 723.721 51.9338 723.721 57.5H727.721C727.721 52.4662 728.717 48.2046 730.632 44.6482L727.11 42.7518ZM723.721 57.5C723.721 63.0678 724.826 68.0471 727.1 72.3797L730.642 70.5203C728.716 66.853 727.721 62.5322 727.721 57.5H723.721ZM727.11 72.3982C729.362 76.5801 732.393 79.8962 736.207 82.2933L738.335 78.9067C735.149 76.9038 732.58 74.1199 730.632 70.5018L727.11 72.3982ZM736.263 82.3276C740.186 84.616 744.537 85.75 749.271 85.75V81.75C745.204 81.75 741.556 80.784 738.279 78.8724L736.263 82.3276ZM926.369 4.99999H928.369V2.99999H926.369V4.99999ZM926.369 110V112H928.369V110H926.369ZM897.269 110L895.735 111.283L896.335 112H897.269V110ZM857.369 62.3L858.903 61.0168L855.369 56.7918V62.3H857.369ZM857.369 110V112H859.369V110H857.369ZM822.869 110H820.869V112H822.869V110ZM822.869 4.99999V2.99999H820.869V4.99999H822.869ZM851.969 4.99999L853.503 3.71678L852.904 2.99999H851.969V4.99999ZM891.869 52.7L890.335 53.9832L893.869 58.2081V52.7H891.869ZM891.869 4.99999V2.99999H889.869V4.99999H891.869ZM924.369 4.99999V110H928.369V4.99999H924.369ZM926.369 108H897.269V112H926.369V108ZM898.803 108.717L858.903 61.0168L855.835 63.5832L895.735 111.283L898.803 108.717ZM855.369 62.3V110H859.369V62.3H855.369ZM857.369 108H822.869V112H857.369V108ZM824.869 110V4.99999H820.869V110H824.869ZM822.869 6.99999H851.969V2.99999H822.869V6.99999ZM850.435 6.28321L890.335 53.9832L893.403 51.4168L853.503 3.71678L850.435 6.28321ZM893.869 52.7V4.99999H889.869V52.7H893.869ZM891.869 6.99999H926.369V2.99999H891.869V6.99999ZM958.576 109.55L958.102 111.493L958.116 111.496L958.13 111.5L958.576 109.55ZM938.326 101.6L936.497 100.792L935.795 102.38L937.269 103.298L938.326 101.6ZM949.726 75.8L950.729 74.0699L948.799 72.9501L947.897 74.9917L949.726 75.8ZM966.526 82.85L965.968 84.7707L965.983 84.7749L965.997 84.7788L966.526 82.85ZM994.876 84.05L995.664 85.8883L995.7 85.8727L995.736 85.8557L994.876 84.05ZM993.826 74.75L993.071 76.6022L993.083 76.6069L993.095 76.6115L993.826 74.75ZM980.326 71.15L979.915 73.1074L979.922 73.1087L980.326 71.15ZM960.076 65.75L959.381 67.6255L959.397 67.6312L959.412 67.6366L960.076 65.75ZM945.976 56.15L944.481 57.4787L944.489 57.4871L944.496 57.4953L945.976 56.15ZM945.526 20L947.176 21.1305L945.526 20ZM962.026 7.24999L961.253 5.40529L961.244 5.4091L962.026 7.24999ZM1010.03 4.99999L1009.57 6.9483L1009.59 6.95208L1009.61 6.9556L1010.03 4.99999ZM1028.48 11.75L1030.32 12.5169L1031 10.8817L1029.46 10.0095L1028.48 11.75ZM1017.83 37.4L1016.92 39.1854L1018.85 40.156L1019.67 38.1669L1017.83 37.4ZM978.976 41L978.221 42.8522L978.251 42.8643L978.281 42.8755L978.976 41ZM992.326 44.3L991.946 46.2636L991.957 46.2657L992.326 44.3ZM1012.58 49.55L1011.89 51.4296L1011.91 51.4351L1011.92 51.4404L1012.58 49.55ZM1026.83 59L1025.35 60.3453L1025.35 60.3544L1025.36 60.3634L1026.83 59ZM1027.43 95L1029.07 96.1449L1029.07 96.1377L1029.08 96.1305L1027.43 95ZM1010.78 107.75L1011.56 109.591L1011.57 109.586L1010.78 107.75ZM984.076 110.4C975.523 110.4 967.173 109.466 959.022 107.6L958.13 111.5C966.579 113.434 975.229 114.4 984.076 114.4V110.4ZM959.05 107.607C950.989 105.641 944.452 103.058 939.383 99.9022L937.269 103.298C942.8 106.742 949.763 109.459 958.102 111.493L959.05 107.607ZM940.155 102.408L951.555 76.6083L947.897 74.9917L936.497 100.792L940.155 102.408ZM948.723 77.5301C953.878 80.5203 959.63 82.9307 965.968 84.7707L967.084 80.9293C961.021 79.1693 955.574 76.8797 950.729 74.0699L948.723 77.5301ZM965.997 84.7788C972.348 86.5201 978.476 87.4 984.376 87.4V83.4C978.876 83.4 973.104 82.5799 967.055 80.9212L965.997 84.7788ZM984.376 87.4C989.307 87.4 993.162 86.9604 995.664 85.8883L994.088 82.2117C992.39 82.9396 989.245 83.4 984.376 83.4V87.4ZM995.736 85.8557C997 85.2536 998.087 84.4509 998.858 83.3855C999.646 82.2978 1000.03 81.0439 1000.03 79.7H996.026C996.026 80.2561 995.881 80.6772 995.619 81.0395C995.34 81.4241 994.852 81.8464 994.016 82.2443L995.736 85.8557ZM1000.03 79.7C1000.03 78.1347 999.513 76.7115 998.501 75.5185C997.52 74.3627 996.151 73.5146 994.557 72.8885L993.095 76.6115C994.301 77.0854 995.032 77.6123 995.451 78.1065C995.839 78.5635 996.026 79.0653 996.026 79.7H1000.03ZM994.581 72.8978C991.698 71.7233 987.042 70.4938 980.73 69.1913L979.922 73.1087C986.21 74.4062 990.554 75.5767 993.071 76.6022L994.581 72.8978ZM980.737 69.1926C972.688 67.5035 966.03 65.7246 960.74 63.8634L959.412 67.6366C964.922 69.5754 971.764 71.3965 979.915 73.1074L980.737 69.1926ZM960.771 63.8745C955.681 61.9895 951.248 58.9756 947.456 54.8046L944.496 57.4953C948.704 62.1244 953.671 65.5105 959.381 67.6255L960.771 63.8745ZM947.471 54.8213C943.875 50.7758 941.976 45.2431 941.976 38H937.976C937.976 45.9569 940.077 52.5242 944.481 57.4787L947.471 54.8213ZM941.976 38C941.976 31.7999 943.706 26.1947 947.176 21.1305L943.876 18.8695C939.946 24.6053 937.976 31 937.976 38H941.976ZM947.176 21.1305C950.618 16.1062 955.784 12.0735 962.808 9.09088L961.244 5.4091C953.668 8.62646 947.834 13.0938 943.876 18.8695L947.176 21.1305ZM962.799 9.09467C969.891 6.12354 978.563 4.6 988.876 4.6V0.599998C978.189 0.599998 968.961 2.17645 961.253 5.40532L962.799 9.09467ZM988.876 4.6C995.926 4.6 1002.82 5.38322 1009.57 6.9483L1010.48 3.05169C1003.43 1.41677 996.226 0.599998 988.876 0.599998V4.6ZM1009.61 6.9556C1016.44 8.42032 1022.4 10.6063 1027.49 13.4905L1029.46 10.0095C1023.96 6.8937 1017.61 4.57967 1010.45 3.04439L1009.61 6.9556ZM1026.63 10.9831L1015.98 36.6331L1019.67 38.1669L1030.32 12.5169L1026.63 10.9831ZM1018.73 35.6146C1008.22 30.3085 998.159 27.6 988.576 27.6V31.6C997.393 31.6 1006.83 34.0915 1016.92 39.1854L1018.73 35.6146ZM988.576 27.6C983.929 27.6 980.152 28.1515 977.468 29.4494C976.099 30.1115 974.943 31.0018 974.132 32.1773C973.311 33.3687 972.926 34.736 972.926 36.2H976.926C976.926 35.464 977.11 34.9063 977.426 34.4477C977.753 33.9732 978.303 33.4885 979.209 33.0506C981.075 32.1485 984.123 31.6 988.576 31.6V27.6ZM972.926 36.2C972.926 37.7205 973.429 39.1027 974.41 40.2647C975.359 41.3899 976.683 42.2254 978.221 42.8522L979.731 39.1478C978.569 38.6746 977.868 38.1601 977.467 37.6853C977.098 37.2473 976.926 36.7795 976.926 36.2H972.926ZM978.281 42.8755C981.146 43.9365 985.734 45.0613 991.946 46.2636L992.706 42.3364C986.518 41.1387 982.206 40.0635 979.671 39.1245L978.281 42.8755ZM991.957 46.2657C999.888 47.7528 1006.53 49.4781 1011.89 51.4296L1013.26 47.6704C1007.63 45.6219 1000.76 43.8472 992.695 42.3343L991.957 46.2657ZM1011.92 51.4404C1017.1 53.2284 1021.57 56.1878 1025.35 60.3453L1028.31 57.6547C1024.09 53.0122 1019.05 49.6716 1013.23 47.6596L1011.92 51.4404ZM1025.36 60.3634C1029.03 64.3028 1030.98 69.7671 1030.98 77H1034.98C1034.98 69.0329 1032.82 62.4972 1028.29 57.6366L1025.36 60.3634ZM1030.98 77C1030.98 83.2 1029.25 88.8053 1025.78 93.8695L1029.08 96.1305C1033.01 90.3947 1034.98 84 1034.98 77H1030.98ZM1025.79 93.8551C1022.35 98.7838 1017.13 102.825 1009.98 105.914L1011.57 109.586C1019.23 106.275 1025.11 101.816 1029.07 96.1449L1025.79 93.8551ZM1009.99 105.909C1003.01 108.876 994.39 110.4 984.076 110.4V114.4C994.762 114.4 1003.94 112.824 1011.56 109.591L1009.99 105.909ZM1066.35 32.45H1068.35V30.45H1066.35V32.45ZM1035.6 32.45H1033.6V34.45H1035.6V32.45ZM1035.6 4.99999V2.99999H1033.6V4.99999H1035.6ZM1132.5 4.99999H1134.5V2.99999H1132.5V4.99999ZM1132.5 32.45V34.45H1134.5V32.45H1132.5ZM1101.75 32.45V30.45H1099.75V32.45H1101.75ZM1101.75 110V112H1103.75V110H1101.75ZM1066.35 110H1064.35V112H1066.35V110ZM1066.35 30.45H1035.6V34.45H1066.35V30.45ZM1037.6 32.45V4.99999H1033.6V32.45H1037.6ZM1035.6 6.99999H1132.5V2.99999H1035.6V6.99999ZM1130.5 4.99999V32.45H1134.5V4.99999H1130.5ZM1132.5 30.45H1101.75V34.45H1132.5V30.45ZM1099.75 32.45V110H1103.75V32.45H1099.75ZM1101.75 108H1066.35V112H1101.75V108ZM1068.35 110V32.45H1064.35V110H1068.35ZM1230.49 83.3H1232.49V81.3H1230.49V83.3ZM1230.49 110V112H1232.49V110H1230.49ZM1143.19 110H1141.19V112H1143.19V110ZM1143.19 4.99999V2.99999H1141.19V4.99999H1143.19ZM1228.54 4.99999H1230.54V2.99999H1228.54V4.99999ZM1228.54 31.7V33.7H1230.54V31.7H1228.54ZM1177.99 31.7V29.7H1175.99V31.7H1177.99ZM1177.99 44H1175.99V46H1177.99V44ZM1222.39 44H1224.39V42H1222.39V44ZM1222.39 69.5V71.5H1224.39V69.5H1222.39ZM1177.99 69.5V67.5H1175.99V69.5H1177.99ZM1177.99 83.3H1175.99V85.3H1177.99V83.3ZM1228.49 83.3V110H1232.49V83.3H1228.49ZM1230.49 108H1143.19V112H1230.49V108ZM1145.19 110V4.99999H1141.19V110H1145.19ZM1143.19 6.99999H1228.54V2.99999H1143.19V6.99999ZM1226.54 4.99999V31.7H1230.54V4.99999H1226.54ZM1228.54 29.7H1177.99V33.7H1228.54V29.7ZM1175.99 31.7V44H1179.99V31.7H1175.99ZM1177.99 46H1222.39V42H1177.99V46ZM1220.39 44V69.5H1224.39V44H1220.39ZM1222.39 67.5H1177.99V71.5H1222.39V67.5ZM1175.99 69.5V83.3H1179.99V69.5H1175.99ZM1177.99 85.3H1230.49V81.3H1177.99V85.3ZM1290.62 83.6L1292.27 82.4798L1291.68 81.6H1290.62V83.6ZM1281.02 83.6V81.6H1279.02V83.6H1281.02ZM1281.02 110V112H1283.02V110H1281.02ZM1245.62 110H1243.62V112H1245.62V110ZM1245.62 4.99999V2.99999H1243.62V4.99999H1245.62ZM1321.52 9.8L1320.71 11.6276L1321.52 9.8ZM1338.17 23.6L1336.49 24.69L1338.17 23.6ZM1338.92 64.25L1337.21 63.212L1338.92 64.25ZM1324.22 77.6L1323.3 75.8224L1321.29 76.8577L1322.56 78.7253L1324.22 77.6ZM1346.27 110V112H1350.05L1347.92 108.875L1346.27 110ZM1308.47 110L1306.81 111.12L1307.41 112H1308.47V110ZM1304.72 35.6L1303.37 37.0743L1303.38 37.0899L1303.4 37.1051L1304.72 35.6ZM1281.02 32.3V30.3H1279.02V32.3H1281.02ZM1281.02 56.9H1279.02V58.9H1281.02V56.9ZM1304.72 53.75L1306.03 55.2551L1306.05 55.2399L1306.07 55.2243L1304.72 53.75ZM1290.62 81.6H1281.02V85.6H1290.62V81.6ZM1279.02 83.6V110H1283.02V83.6H1279.02ZM1281.02 108H1245.62V112H1281.02V108ZM1247.62 110V4.99999H1243.62V110H1247.62ZM1245.62 6.99999H1296.17V2.99999H1245.62V6.99999ZM1296.17 6.99999C1305.65 6.99999 1313.81 8.56434 1320.71 11.6276L1322.33 7.97237C1314.82 4.63565 1306.08 2.99999 1296.17 2.99999V6.99999ZM1320.71 11.6276C1327.59 14.687 1332.82 19.0467 1336.49 24.69L1339.84 22.51C1335.71 16.1533 1329.85 11.313 1322.33 7.97237L1320.71 11.6276ZM1336.49 24.69C1340.16 30.3281 1342.02 36.9398 1342.02 44.6H1346.02C1346.02 36.2602 1343.98 28.8719 1339.84 22.51L1336.49 24.69ZM1342.02 44.6C1342.02 51.788 1340.39 57.9681 1337.21 63.212L1340.63 65.288C1344.24 59.3319 1346.02 52.412 1346.02 44.6H1342.02ZM1337.21 63.212C1334.02 68.4664 1329.41 72.6739 1323.3 75.8224L1325.13 79.3776C1331.83 75.9261 1337.02 71.2336 1340.63 65.288L1337.21 63.212ZM1322.56 78.7253L1344.61 111.125L1347.92 108.875L1325.87 76.4748L1322.56 78.7253ZM1346.27 108H1308.47V112H1346.27V108ZM1310.12 108.88L1292.27 82.4798L1288.96 84.7202L1306.81 111.12L1310.12 108.88ZM1310.32 44.6C1310.32 40.2631 1308.96 36.6579 1306.03 34.0948L1303.4 37.1051C1305.27 38.7421 1306.32 41.1369 1306.32 44.6H1310.32ZM1306.07 34.1257C1303.16 31.4576 1298.98 30.3 1293.92 30.3V34.3C1298.45 34.3 1301.48 35.3424 1303.37 37.0743L1306.07 34.1257ZM1293.92 30.3H1281.02V34.3H1293.92V30.3ZM1279.02 32.3V56.9H1283.02V32.3H1279.02ZM1281.02 58.9H1293.92V54.9H1281.02V58.9ZM1293.92 58.9C1298.96 58.9 1303.12 57.8016 1306.03 55.2551L1303.4 52.2448C1301.51 53.8984 1298.47 54.9 1293.92 54.9V58.9ZM1306.07 55.2243C1308.96 52.5711 1310.32 48.9401 1310.32 44.6H1306.32C1306.32 48.0599 1305.27 50.5289 1303.37 52.2757L1306.07 55.2243Z" fill="black"/>
</g>
<defs>
<filter id="filter0_d" x="0.714844" y="0.600098" width="1354.33" height="116.8" filterUnits="userSpaceOnUse" color-interpolation-filters="sRGB">
<feFlood flood-opacity="0" result="BackgroundImageFix"/>
<feColorMatrix in="SourceAlpha" type="matrix" values="0 0 0 0 0 0 0 0 0 0 0 0 0 0 0 0 0 0 127 0"/>
<feOffset dx="5" dy="3"/>
<feColorMatrix type="matrix" values="0 0 0 0 0 0 0 0 0 0 0 0 0 0 0 0 0 0 1 0"/>
<feBlend mode="normal" in2="BackgroundImageFix" result="effect1_dropShadow"/>
<feBlend mode="normal" in="SourceGraphic" in2="effect1_dropShadow" result="shape"/>
</filter>
</defs>
</svg>
